<svg width="22" height="29" viewBox="0 0 22 29" fill="none" xmlns="http://www.w3.org/2000/svg">
<path d="M4.108 17.117C3.44067 17.117 2.834 16.9653 2.288 16.662C1.75067 16.3587 1.326 15.9297 1.014 15.375C0.710667 14.8117 0.559 14.1617 0.559 13.425C0.559 12.697 0.715 12.0557 1.027 11.501C1.34767 10.9377 1.781 10.5087 2.327 10.214C2.873 9.91067 3.484 9.759 4.16 9.759C4.836 9.759 5.447 9.91067 5.993 10.214C6.539 10.5087 6.968 10.9333 7.28 11.488C7.60067 12.0427 7.761 12.6883 7.761 13.425C7.761 14.1617 7.59633 14.8117 7.267 15.375C6.94633 15.9297 6.50867 16.3587 5.954 16.662C5.39933 16.9653 4.784 17.117 4.108 17.117ZM4.108 16.077C4.53267 16.077 4.93133 15.9773 5.304 15.778C5.67667 15.5787 5.97567 15.2797 6.201 14.881C6.435 14.4823 6.552 13.997 6.552 13.425C6.552 12.853 6.43933 12.3677 6.214 11.969C5.98867 11.5703 5.694 11.2757 5.33 11.085C4.966 10.8857 4.57167 10.786 4.147 10.786C3.71367 10.786 3.315 10.8857 2.951 11.085C2.59567 11.2757 2.30967 11.5703 2.093 11.969C1.87633 12.3677 1.768 12.853 1.768 13.425C1.768 14.0057 1.872 14.4953 2.08 14.894C2.29667 15.2927 2.58267 15.5917 2.938 15.791C3.29333 15.9817 3.68333 16.077 4.108 16.077ZM18.6011 11.033C18.8091 10.6257 19.1037 10.3093 19.4851 10.084C19.8751 9.85867 20.3474 9.746 20.9021 9.746V10.968H20.5901C19.2641 10.968 18.6011 11.6873 18.6011 13.126V17H17.4181V9.876H18.6011V11.033Z" fill="white"/>
<line x1="18.4472" y1="0.223607" x2="4.44721" y2="28.2236" stroke="white"/>
</svg>
